Coordinates
version=1
nRows=6
nColumns=36
inDegrees=yes

Units are S.I. units (second, meters, Newtons, ...)
If the header above contains a line with 'inDegrees', this indicates whether rotational values are in degrees (yes) or radians (no).

endheader
time	pelvis_tilt	pelvis_list	pelvis_rotation	pelvis_tx	pelvis_ty	pelvis_tz	hip_flexion_r	hip_adduction_r	hip_rotation_r	knee_angle_r	knee_angle_r_beta	ankle_angle_r	subtalar_angle_r	mtp_angle_r	hip_flexion_l	hip_adduction_l	hip_rotation_l	knee_angle_l	knee_angle_l_beta	ankle_angle_l	subtalar_angle_l	mtp_angle_l	lumbar_extension	lumbar_bending	lumbar_rotation	arm_flex_r	arm_add_r	arm_rot_r	elbow_flex_r	pro_sup_r	arm_flex_l	arm_add_l	arm_rot_l	elbow_flex_l	pro_sup_l
     44.45000000	      8.96995461	     -1.14609185	    180.81339489	      0.33685560	      0.80165081	      0.76614627	     32.14612519	    -12.52334019	      8.52936051	     62.80960085	      1.09623434	    -12.04816362	     -6.23300444	     -7.49999987	     27.26376277	     -1.77180675	      9.36971951	     63.18799395	      1.10283854	     -9.04380811	    -27.61698764	     -7.49999987	     -0.67945745	     -2.12671647	      0.28516424	      1.58149155	     -5.48469075	     14.93904575	     12.33699872	     80.57285308	      6.15551289	     -5.93972858	      3.13282706	      7.97525888	     89.66292158
     44.46666670	      8.72237129	     -0.81134106	    180.39047559	      0.33931461	      0.80958715	      0.76764172	     32.46500181	    -10.67040535	      9.14317770	     66.22409141	      1.15582844	    -16.87970100	     -9.11049851	     -7.49999987	     27.83331456	     -1.17298591	      8.11539880	     62.93700598	      1.09845798	    -10.86198712	    -28.40246716	     -7.49999987	     -1.05528535	     -1.34595008	      1.22624427	      1.60752811	     -6.45740103	     14.05961485	     12.83940752	     79.30318163	      6.37609285	     -5.83783832	      3.67611241	      8.46091080	     88.88714619
     44.48333330	      8.19536657	     -0.57812574	    179.79028461	      0.34213602	      0.81844945	      0.76823329	     32.42179221	     -8.67155296	      9.71309975	     67.55462112	      1.17905056	    -19.96715118	    -12.56524532	     -7.49999987	     27.92242807	     -0.74145288	      6.29592615	     61.43849204	      1.07230397	    -11.93943579	    -29.35790370	     -7.49999987	     -2.43315445	     -0.67531342	      2.13744456	      2.25870103	     -7.57805387	     13.47503211	     13.54250360	     77.16289518	      7.09767589	     -5.89292764	      4.25929844	      9.38714320	     86.58211556
     44.50000000	      7.64725044	     -0.10073226	    179.33654753	      0.34351385	      0.82632165	      0.76843278	     31.39307623	     -6.72643335	      9.52953294	     66.01649229	      1.15220515	    -21.11586269	    -15.66028935	     -7.49999987	     27.63616550	     -0.73647100	      4.55003899	     58.83260662	      1.02682269	    -12.97021455	    -30.30729557	     -7.49999987	     -4.05483531	      0.22002879	      2.61980586	      3.12195259	     -8.89796333	     12.50349092	     14.97051656	     77.85998653	      8.02288185	     -6.16602011	      4.31457853	     10.64481796	     87.48525004
     44.51666670	      7.42062196	      0.21922390	    178.96153949	      0.34369380	      0.83249194	      0.76830782	     30.42001760	     -5.34190335	      8.89343238	     63.28192355	      1.10447792	    -21.16095473	    -18.20823594	     -7.49999987	     27.41038719	     -0.64845811	      2.92422029	     55.44591568	      0.96771379	    -13.45781487	    -30.78693458	     -7.49999987	     -5.32601233	      0.87833292	      3.13652442	      4.12701911	     -9.76526672	      7.68360345	     16.38463864	     83.71087927	      9.09684350	     -6.21377461	      1.82633717	     12.06781115	     91.56829590
     44.53333330	      7.48384110	      0.44153496	    178.81845891	      0.34309039	      0.83648527	      0.76824812	     29.58395902	     -4.38290335	      7.84913679	     60.11667427	      1.04923390	    -20.79701904	    -20.07502400	     -7.49999987	     26.95012821	     -0.39926836	      1.52754273	     50.88139709	      0.88804791	    -14.52389369	    -31.31114604	     -7.49999987	     -6.14112681	      1.34067791	      3.08309072	      5.44408121	    -10.86120181	      7.69169751	     17.56846335	     83.55643983	     10.04826309	     -6.56443889	      1.48368393	     13.38074162	     90.86855335
